<?xml version="1.0" encoding="utf-8"?>
<!-- Generator: Adobe Illustrator 21.0.2, SVG Export Plug-In . SVG Version: 6.00 Build 0)  -->
<svg version="1.1" id="Layer_1" xmlns="http://www.w3.org/2000/svg" xmlns:xlink="http://www.w3.org/1999/xlink" x="0px" y="0px"
	 width="64px" height="64px" viewBox="0 0 64 64" style="enable-background:new 0 0 64 64;" xml:space="preserve">
<style type="text/css">
	.st0{fill:none;stroke:#222222;stroke-width:2;stroke-linecap:round;stroke-linejoin:round;stroke-miterlimit:10;}
	.st1{fill:none;stroke:#222222;stroke-width:2;stroke-miterlimit:10;}
</style>
<g transform="translate(-1443.293 -1401.293)">
	<g transform="translate(1468.833 1427.868)">
		<g transform="translate(0 0)">
			<path class="st0" d="M13.5,5.5h1.2V3.4L6-3.3c-0.3-0.2-0.7-0.2-1,0l-8.7,6.7v2.1h1.2v8.9c0,0.3,0.3,0.6,0.6,0.6h14.9
				c0.3,0,0.6-0.3,0.6-0.6V5.5z"/>
			<path class="st0" d="M10-2v-1.2h3.6v3.6"/>
		</g>
	</g>
	<g transform="translate(1444 1402)">
		<g transform="translate(0 0)">
			<g transform="translate(58.829 22.964)">
				<path class="st1" d="M2.7,4.7c-2.1,2.1-2.1,5.6,0,7.7c0,0,0,0,0,0"/>
				<path class="st1" d="M-1.1,0.9c-4.3,4.3-4.3,11.1,0,15.4"/>
				<path class="st1" d="M-5-3c-6.4,6.4-6.4,16.7,0,23.1"/>
			</g>
			<g transform="translate(22.964 0)">
				<path class="st1" d="M4.3,1.1c1,1,2.4,1.6,3.8,1.6c1.4,0,2.8-0.6,3.8-1.6"/>
				<path class="st1" d="M0.5,5c2,2,4.8,3.2,7.7,3.2C11,8.2,13.8,7,15.9,5"/>
				<path class="st1" d="M-3.4,8.8c3.1,3.1,7.2,4.8,11.5,4.8c4.3,0,8.5-1.7,11.5-4.8"/>
			</g>
			<g transform="translate(0 22.964)">
				<path class="st1" d="M0.7,12.4c1-1,1.6-2.4,1.6-3.8c0-1.4-0.6-2.8-1.6-3.8"/>
				<path class="st1" d="M4.5,16.3c2-2,3.2-4.8,3.2-7.7c0-2.9-1.1-5.7-3.2-7.7"/>
				<path class="st1" d="M8.4,20.1c3.1-3.1,4.8-7.2,4.8-11.5c0-4.3-1.7-8.5-4.8-11.5"/>
			</g>
		</g>
		<g transform="translate(51.036 73.8) rotate(180)">
			<g transform="translate(0 0)">
				<path class="st1" d="M16.1,12c1,1,2.4,1.6,3.8,1.6c1.4,0,2.8-0.6,3.8-1.6"/>
				<path class="st1" d="M12.2,15.8c2,2,4.8,3.2,7.7,3.2c2.9,0,5.7-1.1,7.7-3.2"/>
				<path class="st1" d="M8.4,19.7c3.1,3.1,7.2,4.8,11.5,4.8c4.3,0,8.5-1.7,11.5-4.8"/>
			</g>
		</g>
	</g>
</g>
</svg>
