<svg xmlns="http://www.w3.org/2000/svg" viewBox="0 0 24 21.333"><defs><style>.a{fill:#e4252a;}</style></defs><path class="a" d="M12,0A5.25,5.25,0,0,0,6.75,5.25c0,2.344,3.431,6.617,4.746,8.168a.657.657,0,0,0,1.008,0c1.315-1.551,4.746-5.823,4.746-8.168A5.25,5.25,0,0,0,12,0Zm0,7a1.75,1.75,0,1,1,1.75-1.75A1.75,1.75,0,0,1,12,7ZM.838,9A1.334,1.334,0,0,0,0,10.236v10.43a.667.667,0,0,0,.914.619l5.753-2.618V8.955a12.618,12.618,0,0,1-.885-1.934ZM12,14.986a1.991,1.991,0,0,1-1.521-.707c-.819-.967-1.69-2.068-2.479-3.2v7.583l8,2.667V11.083c-.788,1.129-1.659,2.23-2.479,3.2A1.992,1.992,0,0,1,12,14.986ZM23.086,6.715,17.333,9.333v12L23.162,19A1.333,1.333,0,0,0,24,17.764V7.334a.667.667,0,0,0-.914-.619Z" transform="translate(0 0)"/></svg>