<?xml version="1.0" encoding="utf-8"?>
<!-- Generator: Adobe Illustrator 21.0.2, SVG Export Plug-In . SVG Version: 6.00 Build 0)  -->
<svg version="1.1" id="Layer_1" xmlns="http://www.w3.org/2000/svg" xmlns:xlink="http://www.w3.org/1999/xlink" x="0px" y="0px"
	 width="64px" height="64px" viewBox="0 0 64 64" style="enable-background:new 0 0 64 64;" xml:space="preserve">
<style type="text/css">
	.st0{fill:none;stroke:#222222;stroke-width:2;stroke-miterlimit:10;}
</style>
<path class="st0" d="M25.5,49.4L25.5,49.4c-1.1,0-2-0.9-2-2V31.7c0-1.1,0.9-2,2-2c0,0,0,0,0,0l0,0c1.1,0,2,0.9,2,2c0,0,0,0,0,0v15.8
	C27.4,48.5,26.6,49.4,25.5,49.4z"/>
<rect x="27.4" y="31.7" class="st0" width="27.6" height="15.8"/>
<line class="st0" x1="31.4" y1="47.4" x2="31.4" y2="31.7"/>
<rect x="55.1" y="36.6" class="st0" width="3.9" height="5.9"/>
<line class="st0" x1="50.1" y1="43.5" x2="52.1" y2="43.5"/>
<rect x="37.3" y="31.7" class="st0" width="11.8" height="3.9"/>
<line class="st0" x1="50.1" y1="39.6" x2="36.3" y2="39.6"/>
<path class="st0" d="M23.5,46.5l-9.9-6.9l9.9-6.9"/>
<line class="st0" x1="0.8" y1="39.6" x2="2.8" y2="39.6"/>
<line class="st0" x1="4.7" y1="39.6" x2="6.7" y2="39.6"/>
<line class="st0" x1="8.7" y1="39.6" x2="10.7" y2="39.6"/>
<line class="st0" x1="4.7" y1="50.5" x2="6.1" y2="49.1"/>
<line class="st0" x1="7.5" y1="47.7" x2="8.9" y2="46.3"/>
<line class="st0" x1="10.2" y1="44.9" x2="11.6" y2="43.5"/>
<line class="st0" x1="4.7" y1="28.6" x2="6.1" y2="30"/>
<line class="st0" x1="7.5" y1="31.4" x2="8.9" y2="32.8"/>
<line class="st0" x1="10.2" y1="34.2" x2="11.6" y2="35.6"/>
<g transform="translate(43.029 0.906)">
	<path class="st0" d="M2.8,30.8l1.6-3.4l7-3.3l5.8-12.5L2.9,4.9L-3,17.4l2,7.5l-2.7,5.9"/>
	<line class="st0" x1="12.3" y1="12.6" x2="9" y2="19.8"/>
	<line class="st0" x1="-3" y1="17.4" x2="11.3" y2="24.1"/>
	<line class="st0" x1="-0.4" y1="3.4" x2="20.4" y2="13.1"/>
</g>
<path class="st0" d="M38.3,47.4h-6.9v2c0,1.6,1.3,3,3,3h0h7.2"/>
<path class="st0" d="M52.1,47.4l3.5,5c0.6,0.9,0.4,2.1-0.5,2.8c-0.1,0.1-0.2,0.1-0.3,0.2l-5.6,2.6c-1.8,0.8-3.8,0.2-4.9-1.4l-6-9.1"
	/>
<path class="st0" d="M33.4,56.3v1c0,1.1,0.9,2,2,2l0,0l0,0c1.1,0,2-0.9,2-2l0,0v-4.9"/>
</svg>
