<?xml version="1.0" encoding="utf-8"?>
<!-- Generator: Adobe Illustrator 21.0.2, SVG Export Plug-In . SVG Version: 6.00 Build 0)  -->
<svg version="1.1" id="Layer_1" xmlns="http://www.w3.org/2000/svg" xmlns:xlink="http://www.w3.org/1999/xlink" x="0px" y="0px"
	 width="64px" height="64px" viewBox="0 0 64 64" style="enable-background:new 0 0 64 64;" xml:space="preserve">
<style type="text/css">
	.st0{fill:none;stroke:#222222;stroke-width:2;stroke-linejoin:round;stroke-miterlimit:10;}
	.st1{fill:none;stroke:#222222;stroke-width:2;stroke-miterlimit:10;}
	.st2{fill:none;stroke:#222222;stroke-width:2;stroke-linecap:round;stroke-linejoin:round;stroke-miterlimit:10;}
</style>
<g transform="translate(31.732 1)">
	<path class="st0" d="M0.2,21.8v-2c0-9.1,7.3-16.4,16.4-16.4l0,0c8,0,14.4,6.4,14.4,14.4c0,0.1,0,0.1,0,0.2
		c-0.1,2.3-0.7,4.5-1.9,6.5L26.7,29c-3.3,6-5.5,12.5-6.6,19.2l-0.3,2.1c-0.6,4.8-4.8,8.5-9.6,8.4l0,0c-5.5,0-9.9-4.4-9.9-9.9
		c0,0,0,0,0,0v-2.4"/>
	<path class="st1" d="M24.8,20.2c0-5.1-4.1-9.2-9.2-9.2c-0.1,0-0.2,0-0.3,0c-5.1,0.3-9,4.5-8.9,9.6v1.1c0.1,2.3,1.3,4.4,3.3,5.6
		c2.9,1.8,3.7,5.6,1.9,8.5c-0.5,0.8-1.2,1.5-2,2"/>
	<path class="st0" d="M9.3,13.5c0.2,4.2,3.9,7.5,8.1,7.3c0.8,0,1.6-0.2,2.3-0.5"/>
</g>
<path class="st2" d="M38.1,33.5c-1.7,0-3.1,1.4-3.1,3.1v1.5c0,1.7-1.4,3.1-3.1,3.1l0,0c-1.7,0-3.1-1.4-3.1-3.1V27.4
	c0-1.7-1.4-3.1-3.1-3.1l0,0c-1.7,0-3.1,1.4-3.1,3.1v23c0,1.7-1.4,3.1-3.1,3.1l0,0c-1.7,0-3.1-1.4-3.1-3.1V19.7
	c0-1.7-1.4-3.1-3.1-3.1c0,0,0,0,0,0l0,0c-1.7,0-3.1,1.4-3.1,3.1v18.4c0,1.7-1.4,3.1-3.1,3.1l0,0c-1.7,0-3.1-1.4-3.1-3.1v-3.1
	c0-1.7-1.4-3.1-3.1-3.1c0,0,0,0,0,0"/>
</svg>
