<?xml version="1.0" encoding="utf-8"?>
<!-- Generator: Adobe Illustrator 21.0.2, SVG Export Plug-In . SVG Version: 6.00 Build 0)  -->
<svg version="1.1" id="Layer_1" xmlns="http://www.w3.org/2000/svg" xmlns:xlink="http://www.w3.org/1999/xlink" x="0px" y="0px"
	 width="64px" height="64px" viewBox="0 0 64 64" style="enable-background:new 0 0 64 64;" xml:space="preserve">
<style type="text/css">
	.st0{fill:none;stroke:#222222;stroke-width:2;stroke-linecap:round;stroke-linejoin:round;stroke-miterlimit:10;}
</style>
<g transform="translate(1 1)">
	<path class="st0" d="M1,0.4v24.4c0,4.3,3.5,7.8,7.8,7.8l0,0c4.3,0,7.8-3.5,7.8-7.8l0,0c0-3.2-2.6-5.9-5.9-5.9c0,0,0,0,0,0l0,0
		c-2.7,0-4.9,2.2-4.9,4.9l0,0c0,2.2,1.8,3.9,3.9,3.9l0,0"/>
	<path class="st0" d="M10.8,19h26.4c3.8,0,6.8,3.1,6.8,6.8l0,0c0,3.8-3.1,6.8-6.8,6.8H8.8"/>
</g>
<g transform="translate(1 3.065)">
	<path class="st0" d="M8.8,0.3C10,1.5,11,2.8,11.8,4.2c0.8-1.4,1.8-2.8,2.9-3.9"/>
	<path class="st0" d="M16.6,9.1c1.2,1.2,2.2,2.5,2.9,3.9c0.8-1.4,1.8-2.8,2.9-3.9"/>
	<path class="st0" d="M1,9.1c1.2,1.2,2.2,2.5,2.9,3.9c0.8-1.4,1.8-2.8,2.9-3.9"/>
	<path class="st0" d="M24.5,0.3c1.2,1.2,2.2,2.5,2.9,3.9c0.8-1.4,1.8-2.8,2.9-3.9"/>
	<path class="st0" d="M40.1,0.3c1.2,1.2,2.2,2.5,2.9,3.9c0.8-1.4,1.8-2.8,2.9-3.9"/>
	<path class="st0" d="M47.9,9.1c1.2,1.2,2.2,2.5,2.9,3.9c0.8-1.4,1.8-2.8,2.9-3.9"/>
	<path class="st0" d="M55.7,17.9c1.2,1.2,2.2,2.5,2.9,3.9c0.8-1.4,1.8-2.8,2.9-3.9"/>
	<path class="st0" d="M43.6,20.8c0.7-1.1,1.5-2,2.4-2.9"/>
	<path class="st0" d="M32.3,9.1c1.2,1.2,2.2,2.5,2.9,3.9c0.8-1.4,1.8-2.8,2.9-3.9"/>
	<path class="st0" d="M47.9,26.7c1.2,1.2,2.2,2.5,2.9,3.9c0.8-1.4,1.8-2.8,2.9-3.9"/>
	<path class="st0" d="M55.7,0.3c1.2,1.2,2.2,2.5,2.9,3.9c0.8-1.4,1.8-2.8,2.9-3.9"/>
	<path class="st0" d="M47.9,44.3c1.2,1.2,2.2,2.5,2.9,3.9c0.8-1.4,1.8-2.8,2.9-3.9"/>
	<path class="st0" d="M35.2,48.2c0.8-1.4,1.8-2.8,2.9-3.9"/>
	<path class="st0" d="M55.7,53.1c1.2,1.2,2.2,2.5,2.9,3.9c0.8-1.4,1.8-2.8,2.9-3.9"/>
	<path class="st0" d="M40.1,53.1c1.2,1.2,2.2,2.5,2.9,3.9c0.8-1.4,1.8-2.8,2.9-3.9"/>
	<path class="st0" d="M55.7,35.5c1.2,1.2,2.2,2.5,2.9,3.9c0.8-1.4,1.8-2.8,2.9-3.9"/>
	<path class="st0" d="M40.1,35.5c1.2,1.2,2.2,2.5,2.9,3.9c0.8-1.4,1.8-2.8,2.9-3.9"/>
</g>
<line class="st0" x1="36.2" y1="38.5" x2="36.2" y2="62"/>
</svg>
