<?xml version="1.0" encoding="utf-8"?>
<!-- Generator: Adobe Illustrator 21.0.2, SVG Export Plug-In . SVG Version: 6.00 Build 0)  -->
<svg version="1.1" id="Layer_1" xmlns="http://www.w3.org/2000/svg" xmlns:xlink="http://www.w3.org/1999/xlink" x="0px" y="0px"
	 width="64px" height="64px" viewBox="0 0 64 64" style="enable-background:new 0 0 64 64;" xml:space="preserve">
<style type="text/css">
	.st0{fill:none;stroke:#222222;stroke-width:2;stroke-miterlimit:10;}
</style>
<rect x="29.9" y="12.2" transform="matrix(0.7071 -0.7071 0.7071 0.7071 -10.9594 34.0626)" class="st0" width="11.4" height="36.1"/>
<path class="st0" d="M47.9,43l3.2,2.7c1.1,1.1,1.1,2.9,0,4l-4,4c-1.5,1.4-3.8,1.4-5.4,0L28.2,41.7c-1.5-1.4-3.9-1.4-5.4,0l-4,4"/>
<path class="st0" d="M3.5,55.7l10.8-10.8c1-1.1,2.8-1.1,3.8,0c0,0,0,0,0,0l1.6,1.6c1.1,1,1.1,2.8,0,3.8c0,0,0,0,0,0L8.9,61.1
	c-1,1.1-2.8,1.1-3.8,0c0,0,0,0,0,0l-1.6-1.6C2.4,58.4,2.4,56.7,3.5,55.7z"/>
<line class="st0" x1="29.6" y1="12.2" x2="40.3" y2="1.4"/>
<line class="st0" x1="35" y1="17.5" x2="43" y2="9.4"/>
<line class="st0" x1="43" y1="25.6" x2="51.1" y2="17.5"/>
<line class="st0" x1="53.8" y1="36.3" x2="60.5" y2="29.6"/>
<line class="st0" x1="48.4" y1="30.9" x2="60.5" y2="18.8"/>
<line class="st0" x1="39" y1="21.5" x2="43" y2="17.5"/>
</svg>
