<svg xmlns="http://www.w3.org/2000/svg" viewBox="0 0 272 88"><defs><style>.a{fill:#e4252a;}.b{fill:#ffdf00;}</style></defs><g transform="translate(0 0.079)"><rect class="a" width="272" height="88" transform="translate(0 -0.079)"/><g transform="translate(22 10.536)"><path class="b" d="M73.779,38.8h1.226a111.015,111.015,0,0,0,5.84-13.958L97.78,28.057a160.774,160.774,0,0,0-10.1,17.286l-.116.584c2.92,4.147,7.124,9.578,12.849,16.411L83.123,65.784A134.166,134.166,0,0,1,74.6,53.052H73.6c-.116,2.4-.175,4.205-.175,5.549,0,1.576.116,3.97.233,7.066H57.6q.352-12.089.351-17.52,0-7.884-.526-22.075l16-.642Z" transform="translate(-57.426 -24.846)"/><path class="b" d="M194.6,35.807c-3.036-.233-5.372-.35-6.949-.35-1.4,0-3.5.117-6.249.292l-.233,4.205c2.219.174,4.2.234,5.781.234,1.985,0,4.5-.175,7.417-.467l-1.926,11.5a50.889,50.889,0,0,0-6.484-.584c-.935,0-2.336.059-4.146.176l-.235,4.263,12.614.7-3.153,10.745c-6.133-.467-11.679-.817-16.644-.817-2.394,0-6.014.058-10.8.174a159.821,159.821,0,0,0,1.11-22.716V41.356a94.487,94.487,0,0,0-1.226-16.236h28.616Z" transform="translate(-118.502 -25.004)"/><path class="b" d="M264.121,43.91c0,2.452.116,5.022.291,7.766a68.9,68.9,0,0,0,14.6-1.809c-1.226,5.43-2.159,10.8-2.978,16.117H247.768c.351-5.723.526-10.687.526-15.008,0-8.351-.468-16.82-1.226-25.521,3.213.058,5.781.058,7.708.058,1.987,0,5.432-.058,10.337-.116A167.649,167.649,0,0,0,264.121,43.91Z" transform="translate(-166.649 -25.163)"/><path class="b" d="M345.786,43.91c0,2.452.116,5.022.291,7.766a68.939,68.939,0,0,0,14.6-1.809c-1.226,5.43-2.161,10.8-2.978,16.117H329.433c.349-5.723.526-10.687.526-15.008,0-8.351-.468-16.82-1.226-25.521,3.213.058,5.782.058,7.71.058,1.984,0,5.43-.058,10.335-.116A167.634,167.634,0,0,0,345.786,43.91Z" transform="translate(-213.683 -25.163)"/><path class="b" d="M442.078,35.807c-3.036-.233-5.372-.35-6.949-.35-1.4,0-3.5.117-6.249.292l-.233,4.205c2.217.174,4.2.234,5.782.234,1.985,0,4.5-.175,7.415-.467l-1.927,11.5a50.824,50.824,0,0,0-6.482-.584c-.935,0-2.336.059-4.146.176l-.235,4.263,12.617.7-3.155,10.745c-6.133-.467-11.679-.817-16.644-.817-2.394,0-6.016.058-10.8.174a159.8,159.8,0,0,0,1.11-22.716V41.356a94.727,94.727,0,0,0-1.226-16.236h28.617Z" transform="translate(-261.037 -25.004)"/><path class="b" d="M518.3,25.671l-23.477.176c1.052,10.277,1.752,19.214,1.752,26.863,0,3.387-.058,7.885-.177,13.432h14.834l.293-12.671,1.11.173a54.127,54.127,0,0,0,9.811,12.966l14.073-1.694A47.11,47.11,0,0,1,527.875,50.9c5.374-4.5,8.236-7.884,8.236-10.979,0-2.161-2.862-7.066-7.885-11.213-2.687-2.161-5.2-3.037-9.518-3.037Zm-7.008,22.017-.761-11.739c5.549.76,8.527,2.862,8.527,4.788C519.058,42.783,516.254,45.819,511.292,47.688Z" transform="translate(-309.341 -25.321)"/><g transform="translate(0.127 55.764)"><path class="b" d="M66.012,160.107c-.81-.061-1.432-.092-1.85-.092-.374,0-.933.03-1.662.077l-.063,1.119c.591.047,1.119.063,1.539.063.528,0,1.2-.047,1.973-.125l-.512,3.062a13.6,13.6,0,0,0-1.725-.154c-.251,0-.622.016-1.105.046l-.063,1.134,3.358.187-.839,2.859c-1.631-.124-3.108-.217-4.43-.217-.638,0-1.6.016-2.875.047a42.543,42.543,0,0,0,.3-6.047v-.482a25.114,25.114,0,0,0-.327-4.319h7.616Z" transform="translate(-57.727 -156.875)"/><path class="b" d="M80.188,164.614c0-2.407-.125-4.817-.248-7.241.745.016,1.445.031,2.065.031.669,0,1.477-.016,2.457-.031-.047,1.119-.11,2.658-.11,4.647,0,1.507.047,3.543.11,6.139-1.213-.016-2.642-.016-4.32-.016C80.172,166.931,80.188,165.766,80.188,164.614Z" transform="translate(-70.52 -156.938)"/><path class="b" d="M101.61,158.072a4.887,4.887,0,0,1,1.958,2.145,5.165,5.165,0,0,1-1.166,6.653,4.537,4.537,0,0,1-3.7,1.29H93.714c.063-1.928.11-3.576.11-4.959,0-1.9-.078-3.823-.219-5.827h4.741A7.5,7.5,0,0,1,101.61,158.072ZM97.9,163.029c0,.281.014.824.061,1.585H98.1a2.681,2.681,0,0,0,2.13-1.708,2.609,2.609,0,0,0-.776-1.134,2.029,2.029,0,0,0-1.495-.622C97.925,161.865,97.9,162.47,97.9,163.029Z" transform="translate(-78.39 -156.938)"/><path class="b" d="M124.443,162.3a3.008,3.008,0,0,0,2.486,1.724c-.016-1.04-.045-2.1-.092-3.154A13.066,13.066,0,0,1,130.894,162c-.063.824-.11,1.571-.11,2.27,0,.886.078,1.989.186,3.3h-3.51c-.7,0-1.477.016-2.378.016a4.463,4.463,0,0,1-3.108-1.649,5.287,5.287,0,0,1-1.866-3.279c0-1.2,1.009-2.859,2.982-4.445a9.355,9.355,0,0,1,4.307-1.865l1.942,2.8C125.982,160.419,124.443,161.723,124.443,162.3Z" transform="translate(-93.654 -156.347)"/><path class="b" d="M152.982,173.111a27.2,27.2,0,0,1-2.736,2.752,18.217,18.217,0,0,1-3.309-2.332c.994-.948,2.052-1.88,3.168-2.782C151.116,171.511,152.065,172.3,152.982,173.111Z" transform="translate(-109.106 -164.641)"/><g transform="translate(51.183 0.42)"><path class="b" d="M186.428,158.072a4.891,4.891,0,0,1,1.96,2.145,5.173,5.173,0,0,1-1.166,6.653,4.542,4.542,0,0,1-3.7,1.29h-4.989c.063-1.928.11-3.576.11-4.959,0-1.9-.078-3.823-.217-5.827h4.741A7.489,7.489,0,0,1,186.428,158.072Zm-3.714,4.957c0,.281.016.824.063,1.585h.139a2.682,2.682,0,0,0,2.13-1.708,2.608,2.608,0,0,0-.776-1.134,2.023,2.023,0,0,0-1.492-.622C182.745,161.865,182.714,162.47,182.714,163.029Z" transform="translate(-178.425 -157.357)"/><path class="b" d="M205.719,164.614c0-2.407-.123-4.817-.248-7.241.747.016,1.445.031,2.067.031.669,0,1.477-.016,2.454-.031-.045,1.119-.107,2.658-.107,4.647,0,1.507.047,3.543.107,6.139-1.211-.016-2.64-.016-4.321-.016C205.7,166.931,205.719,165.766,205.719,164.614Z" transform="translate(-194.002 -157.357)"/><path class="b" d="M222.557,157.373c1.477,0,2.331.047,2.58.063a2.962,2.962,0,0,1,1.864.729,4.464,4.464,0,0,1,1.96,2.906,6.039,6.039,0,0,1-1.631,4.011,3.478,3.478,0,0,1-2.5.605c-.421,0-.917-.031-1.521-.093a15.982,15.982,0,0,0,.186,2.565c-.653,0-1.307-.016-1.944-.016-.884,0-1.772.016-2.627.031.188-2.052.3-3.918.3-5.581,0-1.631-.11-3.356-.282-5.221Zm2.828,3.761c0-.608-.667-1.01-2.036-1.8-.076,1.195-.107,2.33-.107,3.388v.606A3.136,3.136,0,0,0,225.386,161.134Z" transform="translate(-201.747 -157.357)"/><path class="b" d="M249.408,162.263c0,.652.029,1.336.076,2.067a18.345,18.345,0,0,0,3.886-.482c-.327,1.445-.575,2.875-.792,4.29h-7.522c.092-1.525.139-2.845.139-3.995,0-2.223-.123-4.476-.327-6.792.857.016,1.539.016,2.052.016.528,0,1.448-.016,2.752-.031A44.274,44.274,0,0,0,249.408,162.263Z" transform="translate(-216.692 -157.336)"/><path class="b" d="M271.074,173.111a26.96,26.96,0,0,1-2.736,2.752,18.3,18.3,0,0,1-3.309-2.332c1-.948,2.052-1.88,3.17-2.782C269.208,171.511,270.156,172.3,271.074,173.111Z" transform="translate(-228.303 -165.061)"/></g><g transform="translate(100.421 0.186)"><path class="b" d="M298.688,168.133l-4.15-.031q1.493-5.224,2.658-10.771l3.123-.031c.638,1.632,1.369,3.232,2.146,4.8a36.979,36.979,0,0,0,2.47-4.787l3,.063a41.126,41.126,0,0,0,1.788,10.506l-4.493.234c-.327-1.321-.606-2.6-.792-3.871l-2.425,3.979-2.329-3.995Z" transform="translate(-294.538 -157.081)"/><path class="b" d="M337.322,166.387c-.745-.016-1.445-.031-2.128-.031-.157,0-.653,0-1.492.031l-.606,1.756L329.1,168q2.423-5.246,4.49-10.739h3.654l5.1,10.691-4.383.187Zm-.559-2.922-.978-2.331-.949,2.13Z" transform="translate(-314.445 -157.061)"/><path class="b" d="M364.79,162.263c0,.652.031,1.336.078,2.067a18.324,18.324,0,0,0,3.884-.482c-.327,1.445-.575,2.875-.792,4.29h-7.522c.094-1.525.141-2.845.141-3.995,0-2.223-.125-4.476-.327-6.792.855.016,1.539.016,2.052.016.528,0,1.445-.016,2.75-.031A44.794,44.794,0,0,0,364.79,162.263Z" transform="translate(-332.386 -157.102)"/><path class="b" d="M390.416,160.107c-.808-.061-1.43-.092-1.85-.092-.371,0-.931.03-1.662.077l-.063,1.119c.591.047,1.121.063,1.539.063.528,0,1.2-.047,1.973-.125l-.512,3.062a13.6,13.6,0,0,0-1.725-.154c-.248,0-.622.016-1.1.046l-.063,1.134,3.356.187-.839,2.859c-1.631-.124-3.108-.217-4.43-.217-.635,0-1.6.016-2.875.047a42.536,42.536,0,0,0,.3-6.047v-.482a25.289,25.289,0,0,0-.325-4.319h7.614Z" transform="translate(-344.988 -157.061)"/><path class="b" d="M410.808,157.41a3.575,3.575,0,0,1,2.533.808,5.439,5.439,0,0,1,2.1,2.984c0,.824-.761,1.726-2.19,2.923a12.525,12.525,0,0,0,2.3,3.73l-3.745.451a14.425,14.425,0,0,1-2.609-3.45l-.3-.047-.078,3.373h-3.947c.031-1.478.047-2.674.047-3.577,0-2.036-.188-4.413-.468-7.147l6.247-.047Zm.094,4.009c0-.512-.794-1.073-2.271-1.274l.2,3.123C410.154,162.772,410.9,161.963,410.9,161.419Z" transform="translate(-357.842 -157.145)"/><path class="b" d="M434.437,168.133l-4.148-.031q1.493-5.224,2.658-10.771l3.123-.031c.638,1.632,1.367,3.232,2.146,4.8a37,37,0,0,0,2.47-4.787l3,.063a41.21,41.21,0,0,0,1.785,10.506l-4.491.234c-.327-1.321-.606-2.6-.792-3.871l-2.425,3.979-2.331-3.995Z" transform="translate(-372.723 -157.081)"/><path class="b" d="M475.919,160.107c-.81-.061-1.43-.092-1.85-.092-.372,0-.933.03-1.662.077l-.063,1.119c.591.047,1.119.063,1.539.063.528,0,1.195-.047,1.973-.125l-.512,3.062a13.6,13.6,0,0,0-1.725-.154c-.251,0-.622.016-1.1.046l-.063,1.134,3.356.187-.839,2.859c-1.633-.124-3.108-.217-4.43-.217-.638,0-1.6.016-2.875.047a42.54,42.54,0,0,0,.3-6.047v-.482a25.115,25.115,0,0,0-.327-4.319h7.616Z" transform="translate(-394.231 -157.061)"/><path class="b" d="M490.095,164.614c0-2.407-.125-4.817-.248-7.241.745.016,1.445.031,2.065.031.669,0,1.479-.016,2.457-.031-.047,1.119-.11,2.658-.11,4.647,0,1.507.047,3.543.11,6.139-1.213-.016-2.642-.016-4.32-.016C490.079,166.931,490.095,165.766,490.095,164.614Z" transform="translate(-407.025 -157.124)"/><path class="b" d="M507.763,160.655c0,.7.512,1.166,1.056,1.835a3.041,3.041,0,0,1,.823,2.1c0,1.678-1.1,2.859-3.356,3.683l-3.435-1.881-.031-.171a2.1,2.1,0,0,0,1.973-1.9,2.748,2.748,0,0,0-.776-1.694,3.658,3.658,0,0,1-1.166-2.347c0-1.477,1.213-2.844,3.435-3.5l3.029,1.85A2.5,2.5,0,0,0,507.763,160.655Z" transform="translate(-414.497 -156.785)"/><path class="b" d="M526.789,160.889l.264,7.228h-4.367l.219-7.305-2.752.217v-.373a16.149,16.149,0,0,1,.358-3.326c1.725.093,3.155.14,4.3.14s2.875-.047,5.175-.171a32.8,32.8,0,0,0-.808,3.683Z" transform="translate(-424.479 -157.081)"/><path class="b" d="M553.247,160.107c-.808-.061-1.43-.092-1.848-.092-.374,0-.933.03-1.665.077l-.063,1.119c.593.047,1.121.063,1.539.063.528,0,1.2-.047,1.973-.125l-.512,3.062a13.535,13.535,0,0,0-1.725-.154c-.248,0-.622.016-1.1.046l-.062,1.134,3.358.187-.839,2.859c-1.633-.124-3.11-.217-4.43-.217-.638,0-1.6.016-2.877.047a42.212,42.212,0,0,0,.3-6.047v-.482a24.956,24.956,0,0,0-.329-4.319h7.616Z" transform="translate(-438.767 -157.061)"/><path class="b" d="M573.641,157.41a3.571,3.571,0,0,1,2.533.809,5.432,5.432,0,0,1,2.1,2.982c0,.824-.76,1.726-2.193,2.923a12.542,12.542,0,0,0,2.3,3.73l-3.746.451a14.457,14.457,0,0,1-2.613-3.45l-.293-.047-.078,3.373H567.7c.031-1.478.047-2.674.047-3.577,0-2.036-.186-4.413-.466-7.147l6.247-.047Zm.094,4.009c0-.512-.794-1.073-2.271-1.274l.2,3.123C572.988,162.772,573.735,161.963,573.735,161.419Z" transform="translate(-451.625 -157.145)"/></g></g></g></g></svg>