<svg xmlns="http://www.w3.org/2000/svg" viewBox="0 0 160 47.962"><defs><style>.a{opacity:0.4;}.b{fill:#fff;}</style></defs><g class="a" transform="translate(0 -0.506)"><g transform="translate(0 0.506)"><path class="b" d="M11.51,9.825h.863A78.045,78.045,0,0,0,16.484,0L28.406,2.261a112.957,112.957,0,0,0-7.112,12.168l-.082.411c2.055,2.919,5.015,6.742,9.044,11.551L18.088,28.817a94.725,94.725,0,0,1-6-8.961h-.7c-.082,1.685-.123,2.959-.123,3.9,0,1.11.082,2.8.164,4.974H.123Q.37,20.225.37,16.4.37,10.853,0,.863L11.264.411Z"/><path class="b" d="M134.068,7.813c-2.137-.164-3.782-.246-4.892-.246-.987,0-2.467.082-4.4.206l-.164,2.959c1.562.123,2.96.164,4.07.164,1.4,0,3.165-.123,5.22-.329l-1.356,8.1a35.8,35.8,0,0,0-4.563-.411c-.657,0-1.644.041-2.919.123l-.164,3,8.879.493-2.22,7.563c-4.316-.329-8.222-.575-11.716-.575-1.685,0-4.234.041-7.6.123a112.5,112.5,0,0,0,.781-15.991V11.719A66.523,66.523,0,0,0,112.158.291H132.3Z" transform="translate(-80.504 -0.209)"/><path class="b" d="M212.576,13.614c0,1.727.082,3.535.205,5.467a48.512,48.512,0,0,0,10.277-1.274c-.863,3.823-1.521,7.6-2.1,11.346h-19.9c.247-4.029.37-7.522.37-10.565,0-5.878-.329-11.839-.863-17.964,2.261.041,4.07.041,5.426.041,1.4,0,3.823-.041,7.276-.082A117.9,117.9,0,0,0,212.576,13.614Z" transform="translate(-143.967 -0.418)"/><path class="b" d="M298.951,13.614c0,1.727.082,3.535.206,5.467a48.517,48.517,0,0,0,10.277-1.274c-.863,3.823-1.521,7.6-2.1,11.346h-19.9c.246-4.029.37-7.522.37-10.565,0-5.878-.329-11.839-.863-17.964,2.261.041,4.07.041,5.426.041,1.4,0,3.823-.041,7.276-.082A118.078,118.078,0,0,0,298.951,13.614Z" transform="translate(-205.965 -0.418)"/><path class="b" d="M395.815,7.813c-2.138-.164-3.782-.246-4.892-.246-.987,0-2.467.082-4.4.206l-.164,2.959c1.562.123,2.959.164,4.07.164,1.4,0,3.165-.123,5.221-.329l-1.357,8.1a35.8,35.8,0,0,0-4.563-.411c-.657,0-1.644.041-2.918.123l-.165,3,8.88.493-2.22,7.563c-4.316-.329-8.221-.575-11.716-.575-1.685,0-4.234.041-7.6.123a112.538,112.538,0,0,0,.781-15.991V11.719A66.532,66.532,0,0,0,373.9.291h20.143Z" transform="translate(-268.381 -0.209)"/><path class="b" d="M479.135.873,462.61,1c.74,7.235,1.233,13.524,1.233,18.91,0,2.384-.041,5.55-.124,9.455h10.442l.206-8.92.781.123a38.148,38.148,0,0,0,6.906,9.126l9.907-1.192a33.119,33.119,0,0,1-6.084-9.866c3.782-3.165,5.8-5.55,5.8-7.728,0-1.521-2.014-4.974-5.55-7.893a9.463,9.463,0,0,0-6.7-2.138Zm-4.933,15.5-.534-8.263c3.905.534,6,2.014,6,3.371C479.67,12.918,477.7,15.055,474.2,16.371Z" transform="translate(-332.051 -0.626)"/></g><g transform="translate(0.09 40.252)"><path class="b" d="M6.15,142.053c-.569-.044-1.006-.065-1.3-.065-.263,0-.657.022-1.171.055l-.044.788c.416.033.788.044,1.083.044.372,0,.843-.033,1.389-.087l-.361,2.155a9.522,9.522,0,0,0-1.214-.109c-.175,0-.438.011-.777.033l-.044.8,2.363.131-.591,2.013c-1.149-.087-2.188-.153-3.118-.153-.449,0-1.127.011-2.024.033a29.93,29.93,0,0,0,.208-4.256v-.339a17.708,17.708,0,0,0-.23-3.041h5.36Z" transform="translate(-0.319 -139.778)"/><path class="b" d="M23.984,145.265c0-1.7-.087-3.391-.175-5.1.525.011,1.018.022,1.455.022.471,0,1.039-.011,1.729-.022-.033.787-.077,1.871-.077,3.271,0,1.061.033,2.494.077,4.321-.853-.011-1.86-.011-3.041-.011C23.973,146.9,23.984,146.075,23.984,145.265Z" transform="translate(-17.179 -139.861)"/><path class="b" d="M43.9,140.66a3.442,3.442,0,0,1,1.378,1.51,3.637,3.637,0,0,1-.82,4.682,3.194,3.194,0,0,1-2.6.908H38.343c.044-1.357.077-2.516.077-3.49,0-1.335-.055-2.691-.153-4.1H41.6A5.282,5.282,0,0,1,43.9,140.66Zm-2.615,3.49c0,.2.011.58.044,1.116h.1a1.886,1.886,0,0,0,1.5-1.2,1.837,1.837,0,0,0-.547-.8,1.421,1.421,0,0,0-1.05-.438C41.308,143.329,41.286,143.756,41.286,144.149Z" transform="translate(-27.557 -139.861)"/><path class="b" d="M69.345,143.273a2.119,2.119,0,0,0,1.75,1.214c-.011-.733-.033-1.477-.065-2.221a9.19,9.19,0,0,1,2.855.8c-.044.58-.076,1.105-.076,1.6,0,.623.055,1.4.131,2.319H71.467c-.493,0-1.039.011-1.674.011a3.145,3.145,0,0,1-2.188-1.16,3.724,3.724,0,0,1-1.313-2.308c0-.842.711-2.013,2.1-3.129a6.583,6.583,0,0,1,3.03-1.313l1.367,1.969C70.428,141.949,69.345,142.867,69.345,143.273Z" transform="translate(-47.673 -139.083)"/><path class="b" d="M98.923,155.979A19.011,19.011,0,0,1,97,157.915a12.877,12.877,0,0,1-2.33-1.641c.7-.667,1.444-1.324,2.232-1.958C97.61,154.852,98.277,155.41,98.923,155.979Z" transform="translate(-68.04 -150.017)"/><g transform="translate(36.027 0.295)"><path class="b" d="M133.606,140.66a3.444,3.444,0,0,1,1.379,1.51,3.638,3.638,0,0,1-.82,4.682,3.194,3.194,0,0,1-2.6.908h-3.512c.044-1.357.077-2.516.077-3.49,0-1.335-.055-2.691-.153-4.1h3.337A5.281,5.281,0,0,1,133.606,140.66Zm-2.615,3.49c0,.2.011.58.044,1.116h.1a1.886,1.886,0,0,0,1.5-1.2,1.834,1.834,0,0,0-.547-.8,1.421,1.421,0,0,0-1.05-.438C131.014,143.329,130.992,143.756,130.992,144.149Z" transform="translate(-127.972 -140.156)"/><path class="b" d="M156.754,145.265c0-1.7-.087-3.391-.175-5.1.525.011,1.018.022,1.455.022.47,0,1.039-.011,1.728-.022-.033.787-.077,1.871-.077,3.271,0,1.061.033,2.494.077,4.321-.853-.011-1.86-.011-3.041-.011C156.743,146.9,156.754,146.075,156.754,145.265Z" transform="translate(-148.506 -140.156)"/><path class="b" d="M173.365,140.167c1.039,0,1.641.033,1.816.044a2.089,2.089,0,0,1,1.313.514,3.143,3.143,0,0,1,1.378,2.046,4.24,4.24,0,0,1-1.149,2.822,2.442,2.442,0,0,1-1.761.427c-.3,0-.645-.022-1.072-.066a11.3,11.3,0,0,0,.131,1.8c-.46,0-.919-.011-1.368-.011-.624,0-1.247.011-1.849.022.131-1.444.208-2.757.208-3.928,0-1.148-.077-2.363-.2-3.675Zm1.991,2.647c0-.427-.47-.711-1.433-1.269-.055.842-.077,1.641-.077,2.385v.427A2.209,2.209,0,0,0,175.356,142.815Z" transform="translate(-158.717 -140.156)"/><path class="b" d="M201.444,143.6c0,.459.022.941.055,1.455a12.913,12.913,0,0,0,2.735-.339c-.23,1.017-.405,2.024-.558,3.019h-5.295c.066-1.072.1-2,.1-2.811,0-1.564-.088-3.151-.23-4.781.6.011,1.083.011,1.444.011s1.017-.011,1.936-.022A31.414,31.414,0,0,0,201.444,143.6Z" transform="translate(-178.416 -140.128)"/><path class="b" d="M223.824,155.979a19,19,0,0,1-1.925,1.936,12.88,12.88,0,0,1-2.33-1.641c.7-.667,1.444-1.324,2.232-1.958C222.511,154.852,223.178,155.41,223.824,155.979Z" transform="translate(-193.718 -150.312)"/></g><g transform="translate(70.686 0.131)"><path class="b" d="M253.7,147.715l-2.921-.022q1.051-3.676,1.871-7.581l2.2-.022c.449,1.149.963,2.275,1.51,3.381a25.955,25.955,0,0,0,1.739-3.37l2.111.044a29.037,29.037,0,0,0,1.258,7.4l-3.162.164c-.229-.93-.427-1.827-.558-2.724l-1.707,2.8-1.641-2.812Z" transform="translate(-250.781 -139.936)"/><path class="b" d="M293.122,146.473c-.525-.011-1.017-.022-1.5-.022-.109,0-.459,0-1.05.022l-.426,1.236-2.812-.1q1.707-3.692,3.161-7.559h2.571l3.588,7.527-3.085.131Zm-.394-2.057-.689-1.641-.667,1.5Z" transform="translate(-277.018 -139.909)"/><path class="b" d="M323.477,143.6c0,.459.022.941.055,1.455a12.906,12.906,0,0,0,2.735-.339c-.23,1.017-.4,2.024-.558,3.019h-5.295c.066-1.072.1-2,.1-2.811,0-1.564-.088-3.151-.23-4.781.6.011,1.083.011,1.444.011s1.017-.011,1.936-.022A31.343,31.343,0,0,0,323.477,143.6Z" transform="translate(-300.668 -139.964)"/><path class="b" d="M349.255,142.053c-.569-.044-1.006-.065-1.3-.065-.262,0-.656.022-1.17.055l-.044.788c.416.033.788.044,1.083.044.372,0,.843-.033,1.389-.087l-.361,2.155a9.533,9.533,0,0,0-1.214-.109c-.175,0-.438.011-.777.033l-.044.8,2.363.131-.591,2.013c-1.148-.087-2.188-.153-3.118-.153-.449,0-1.127.011-2.024.033a29.946,29.946,0,0,0,.208-4.256v-.339a17.717,17.717,0,0,0-.23-3.041h5.361Z" transform="translate(-317.278 -139.909)"/><path class="b" d="M371.5,140.206a2.516,2.516,0,0,1,1.783.569,3.83,3.83,0,0,1,1.477,2.1c0,.58-.536,1.214-1.543,2.057a8.81,8.81,0,0,0,1.619,2.626l-2.637.317a10.157,10.157,0,0,1-1.837-2.429l-.208-.033-.055,2.374h-2.779c.022-1.039.033-1.882.033-2.516,0-1.433-.131-3.107-.328-5.032l4.4-.033Zm.066,2.822c0-.361-.558-.755-1.6-.9l.142,2.2C371.045,143.98,371.57,143.411,371.57,143.028Z" transform="translate(-334.222 -140.02)"/><path class="b" d="M397.279,147.715l-2.921-.022q1.05-3.676,1.871-7.581l2.2-.022c.449,1.149.963,2.275,1.51,3.381a25.926,25.926,0,0,0,1.74-3.37l2.111.044a29.042,29.042,0,0,0,1.258,7.4l-3.161.164c-.23-.93-.427-1.827-.558-2.724l-1.707,2.8-1.641-2.812Z" transform="translate(-353.837 -139.936)"/><path class="b" d="M439.688,142.053c-.569-.044-1.006-.065-1.3-.065-.262,0-.656.022-1.17.055l-.044.788c.415.033.788.044,1.083.044.372,0,.842-.033,1.389-.087l-.361,2.155a9.533,9.533,0,0,0-1.215-.109c-.175,0-.438.011-.777.033l-.044.8,2.363.131-.591,2.013c-1.149-.087-2.188-.153-3.118-.153-.449,0-1.127.011-2.024.033a29.946,29.946,0,0,0,.208-4.256v-.339a17.718,17.718,0,0,0-.23-3.041h5.361Z" transform="translate(-382.189 -139.909)"/><path class="b" d="M457.522,145.265c0-1.7-.088-3.391-.175-5.1.525.011,1.017.022,1.455.022.471,0,1.04-.011,1.729-.022-.033.787-.077,1.871-.077,3.271,0,1.061.033,2.494.077,4.321-.853-.011-1.86-.011-3.041-.011C457.511,146.9,457.522,146.075,457.522,145.265Z" transform="translate(-399.05 -139.992)"/><path class="b" d="M474.548,142.271c0,.492.361.82.744,1.291a2.142,2.142,0,0,1,.579,1.477c0,1.182-.777,2.013-2.363,2.593l-2.418-1.324-.022-.12a1.482,1.482,0,0,0,1.389-1.335,1.929,1.929,0,0,0-.547-1.192,2.577,2.577,0,0,1-.82-1.652c0-1.039.853-2,2.418-2.461l2.133,1.3A1.759,1.759,0,0,0,474.548,142.271Z" transform="translate(-408.899 -139.547)"/><path class="b" d="M494.074,142.617l.186,5.087h-3.074l.154-5.141-1.937.153v-.263a11.365,11.365,0,0,1,.252-2.341c1.214.066,2.221.1,3.031.1s2.024-.033,3.643-.12a23.335,23.335,0,0,0-.569,2.593Z" transform="translate(-422.059 -139.936)"/><path class="b" d="M521.476,142.053c-.569-.044-1.007-.065-1.3-.065-.263,0-.656.022-1.171.055l-.044.788c.416.033.788.044,1.083.044.372,0,.842-.033,1.389-.087l-.361,2.155a9.52,9.52,0,0,0-1.214-.109c-.175,0-.437.011-.777.033l-.044.8,2.363.131-.591,2.013c-1.149-.087-2.188-.153-3.118-.153-.448,0-1.127.011-2.024.033a29.911,29.911,0,0,0,.208-4.256v-.339a17.673,17.673,0,0,0-.23-3.041h5.361Z" transform="translate(-440.895 -139.909)"/><path class="b" d="M543.727,140.206a2.517,2.517,0,0,1,1.783.569,3.83,3.83,0,0,1,1.477,2.1c0,.58-.536,1.214-1.543,2.057a8.82,8.82,0,0,0,1.619,2.626l-2.636.317a10.155,10.155,0,0,1-1.838-2.429l-.208-.033-.055,2.374h-2.779c.022-1.039.033-1.882.033-2.516,0-1.433-.131-3.107-.328-5.032l4.4-.033Zm.066,2.822c0-.361-.558-.755-1.6-.9l.142,2.2C543.267,143.98,543.792,143.411,543.792,143.028Z" transform="translate(-457.84 -140.02)"/></g></g></g></svg>